# xmcd CD database file
#
# Track frame offsets:
#	150
#	14116
#	37509
#	52270
#	64886
#	83511
#	106958
#	123656
#	149257
#	174910
#	191054
#	208182
#	222423
#
# Disc length: 3172 seconds
#
# Revision: 0
# Processed by: cddbd v1.5.2PL0 Copyright (c) Steve Scherf et al.
# Submitted via: CDex 1.51
#
DISCID=c00c620d
DTITLE=Allan Harris - Black Bar Jukebox
DYEAR=2015
DGENRE=Blues
TTITLE0=I Got A Lot Of Livin To Do
TTITLE1=Miami
TTITLE2=Catfish
TTITLE3=I've Got A Lot Of Blues (Lester Leaps In)
TTITLE4=A Little Bit Scared
TTITLE5=Take Me To The Pilot
TTITLE6=Love's The Key
TTITLE7=My Funny Valentine
TTITLE8=Can It Be This Is A Dream
TTITLE9=Daughters
TTITLE10=Stranger On The Shore
TTITLE11=You Make Me Feel So Young
TTITLE12=Haven't We Met
EXTD=YEAR: 2015
EXTT0=
EXTT1=
EXTT2=
EXTT3=
EXTT4=
EXTT5=
EXTT6=
EXTT7=
EXTT8=
EXTT9=
EXTT10=
EXTT11=
EXTT12=
PLAYORDER=
